# xmcd
#
# Track frame offsets: 
#        150
#        21234
#        41824
#        58654
#        81781
#        100280
#        125823
#        130613
#        147283
#        163894
#        189251
#        204060
#        229029
#        238505
#        258402
#        272485
#        288822
#        310949
#
# Disc length: 4510 seconds
#
# Revision: 2
# Processed by: cddbd v1.5.2PL0 Copyright (c) Steve Scherf et al.
# Submitted via: ExactAudioCopy v1.0b1
#
DISCID=f9119c12
DTITLE=Elvis Presley - FTD - Elvis Now FTD CD2
DYEAR=2010
DGENRE=Rock and Roll
TTITLE0=Help Me Make It through The Night (take 1-3)
TTITLE1=Early Mornin'  Rain (take 1,2&9)
TTITLE2=Fools Rush In (Where Angels Fear To Tread) (take 5&6)
TTITLE3=Until It's Time For You To Go (take 5)
TTITLE4=I'm Leavin' (take 1)
TTITLE5=It's Only Love (take 1-4)
TTITLE6=I Shall Be Released
TTITLE7=It's Only Love (take 6&7)
TTITLE8=Help Me Make It Through The Night (take 6&7)
TTITLE9=Fools Rush In (Where Angels Fear To Tread) (take 8&9)
TTITLE10=Put Your Hand In The Hand (take 1)
TTITLE11=It's Only Love (take 8&9)
TTITLE12=Miracle Of The Rosary (take 1)
TTITLE13=Until It's Time For You To Go (take 6&7)
TTITLE14=Fools Rush In (Where Angels Fear To Tread) (take 10)
TTITLE15=Early Mornin'  Rain (take 11)
TTITLE16=Help Me Make It Through The Night (take 15)
TTITLE17=I'm Leavin' (take 2&3)
EXTD=ELVIS NOW CD 2 - BMG 506020 975010 - FTD 2010\ncd 2: Outtakes
EXTT0=
EXTT1=
EXTT2=
EXTT3=
EXTT4=
EXTT5=
EXTT6=
EXTT7=
EXTT8=
EXTT9=
EXTT10=
EXTT11=
EXTT12=
EXTT13=
EXTT14=
EXTT15=
EXTT16=
EXTT17=
PLAYORDER=
